<?xml version="1.0" encoding="UTF-8"?>
<svg id="Layer_2" data-name="Layer 2" xmlns="http://www.w3.org/2000/svg" viewBox="0 0 1007.14 999.52">
  <defs>
    <style>
      .cls-1 {
        fill: #d30000;
      }

      .cls-2 {
        fill: #ff9f2c;
      }

      .cls-3 {
        fill: #fff;
      }

      .cls-4 {
        fill: #0404a5;
      }
    </style>
  </defs>
  <g id="Layer_1-2" data-name="Layer 1">
    <g>
      <path class="cls-4" d="M518.28,510.66h296.14c106.37,0,192.72,86.36,192.72,192.72v296.14h-296.14c-106.37,0-192.72-86.36-192.72-192.72v-296.14h0Z"/>
      <path class="cls-2" d="M0,510.66h296.14c106.37,0,192.72,86.36,192.72,192.72v296.14H192.72C86.36,999.52,0,913.16,0,806.79v-296.14H0Z" transform="translate(999.52 510.66) rotate(90)"/>
      <path class="cls-4" d="M0,0h296.14c106.37,0,192.72,86.36,192.72,192.72v296.14H192.72C86.36,488.86,0,402.5,0,296.14V0h0Z"/>
      <path class="cls-1" d="M832.92,178.82c23.3-34.36,46.61-68.73,69.91-103.09l-89.9,69.2c-2.63-2.85-5.23-5.31-7.6-7.34l-8.01-6.49c5.41-3.51,9.47-8.79,12.68-14.36,6.61-11.41,9.72-25.05,7.43-38.17-13.23,2.4-22.93,11-30.44,21.55l-7.92-1.4h0c-15.53-4.94-31.93-5.64-48.12-4.4-15.93,1.22-42.74,8.74-55.89-2.02-3.75-3.05-4.01-5.11-6.02-9.05-.35-.66.33-1.19-1.31-.91-3.66,11.6-1.73,23.06,6.89,31.8l13.24,7.85c-25.24,4.71-60.9,35.43-86.61,22.12-8.53-4.41-10.52-10.54-12.98-19.1-.19-.66-.16-1.92-1.08-1.76-2.2,23.88,17.15,44.92,40.59,47.17,4.57.45,10.36,0,15.09,0,.35,0,2.2-1.55,2.2,0-10.48,4.22-20.43,10.76-31.12,14.48-19.52,6.84-38.55.19-50.17-16.54l-7.41-13.66c-3.56,35.66,18.77,80.23,59.47,77.4l12.86-2.23c-28.38,19.1-65.05,24.7-94.36,4.1.39,3.81,3.25,28.52,21.56,37.58,2.31,1.14,5.13,2.17,8.53,2.75-.78,1.09-3.85,5.08-9.43,6.31-7.9,1.73-13.85-3.62-14.41-4.14-2.54,8.72-.06,17.77,6.22,22.91,5.73,4.69,12.52,4.4,14.39,4.26-11.06,12.48-18.97,23.4-23.9,30.64-13.28,19.49-44.26,66.13-47.82,129.18-.6,10.62-.28,19.19,0,24.08,100.84.44,201.69.88,302.53,1.32,32.59-38.72,33.56-70.76,32.96-83.06-2.25-46.53-40.66-96.21-65.06-117.41-3.58-3.11-11.09-9.41-17.34-20.26-10.71-18.6-10.93-38.66-9.38-52.86,0-.07.01-.1.01-.1.05,0,0,1.06,0,1.06-.03.54.04,33.56,18.14,50.55,10.03,9.42,13.11,2.25,30.86,12.9,10.12,6.07,13.18,10.84,36.82,34.61,7.97,8.01,14.49,14.37,18.45,18.21,5.1-.49,13.27-1.88,22.1-6.4,4.57-2.34,26.09-13.36,28.55-33.7,1.38-11.43-3.84-20.95-7.25-27.15-4.5-8.19-7.58-9.36-15.43-19-10.18-12.51-15.61-23.81-19.8-32.53-4.2-8.75-9.01-20.48-12.73-34.89ZM799.33,191.97c-.54-3.02.26-5.3-.91-8.53-.61-1.71-7.29-10.57-6.77-11.13,5.83,5.72,13.1,6.77,20.46,9.4l11.62,22.05c-6.07-2.34-23.06-4.29-24.39-11.79Z"/>
      <g id="aPXjgN">
        <g>
          <path class="cls-1" d="M198.72,833.23c-20.76-.58-42.08-3.78-61.01-12.61-2.43-1.13-8.23-4.9-10.25-5.07-2.39-.21-5.31.77-7.65,1.37-9.51,2.47-18.66,6.59-27.74,10.24l-5.1,2.72c23.81,4.45,44.84,17.86,68.85,21.6,6.87,1.19,15.6,1.95,25.6,1.01,13.1-1.23,22.58-4.84,27.22-6.64,9.74-3.78,16.07-8.04,17.89-9.16,1.47-.9,3.28-1.85,4.36-3.13-10.68-.8-21.45-.02-32.16-.32ZM320.22,850.77c22.48-4.4,42.45-16.4,64.9-21.05l.33-.5c-2.86-.97-5.62-2.52-8.44-3.72-7.15-3.07-15.49-6.2-22.96-8.36-1.97-.57-6.2-1.97-8.06-1.89-1.82.08-8.81,4.47-11.11,5.54-18.72,8.75-42.31,12.14-62.85,12.77-9.97.31-19.89-.69-29.83,0-.48.39,1.31,1.42,1.56,1.6,8.59,6.1,23.12,12.4,33.35,14.95,6.19,1.48,14.28,2.79,23.79,2.72,7.48-.06,14.02-.96,19.32-2.06Z"/>
          <g>
            <path class="cls-1" d="M236.54,603.36c4.05,5.04,7.86,10.28,11.6,15.55,19.22,27.14,44.69,66.63,37.61,101.45-2.49,12.25-12.42,24.14-21.22,32.58-1.99-14.4-7.44-27.88-15.72-39.75-1.32-1.89-11.29-14.91-12.43-14.88-14.42,14.98-25.1,33.69-27.65,54.63-1.28-.03-11.13-12.03-12.43-13.89-11.3-16.13-12.16-33.59-7.22-52.41,8.08-30.8,28.59-57.84,46.8-83.28h.67Z"/>
            <path class="cls-1" d="M321.16,746.27c-1.14-7.53-.94-15.23-1.67-22.82-.24-2.47-.47-5.99-1.02-8.31-.09-.37-.11-.65-.49-.85l-26.8,16.66c.76-4.01,2.74-7.49,3.56-11.59,2-10.03.22-23.51-2.4-33.38-.79-2.95-3.65-9.62-3.51-12.15.13-2.33,5.02-8.29,6.68-10.33,9.83-12.03,22.73-22.97,35.47-31.78.64,0,2.82,5.16,3.22,6.07,11.29,25.42,19.06,56.82,13.16,84.57-.43,2.01-1.4,6.98-2.55,8.44-1.73,2.21-11.65,6.52-14.77,8.54-3.17,2.05-5.86,4.71-8.88,6.94Z"/>
            <path class="cls-1" d="M181.57,730.28l-26.16-16c-.64-.04-.65.42-.82.85-.49,1.23-.84,5.11-1,6.66-.87,8.14-.58,16.39-1.67,24.48-1.98-1.18-3.47-3.03-5.36-4.47-5.27-4.01-11.51-6.94-17.42-9.9-3.01-5.31-4.59-12.33-4.87-18.45-1.29-28.26,3.18-52.76,15.37-78.23.66-1.39,1.21-3.68,2.94-3.04,1.33.49,5.84,4.23,7.31,5.36,10.54,8.06,22.93,19.51,30.81,30.15.7.95,3.61,4.78,3.8,5.55.34,1.36-2.53,8.42-3.1,10.41-2.87,10.12-4.92,22.99-3.45,33.43.64,4.54,2.38,8.82,3.62,13.2Z"/>
            <g>
              <path class="cls-1" d="M403.44,721.29v1c-10.39,18.27-17.45,38.9-29.85,55.93-21.62,29.69-52.71,44.52-89.23,46.36-.58.03-2.77.19-2.51-.84,15.54-9.5,26.9-22.43,32.8-39.83,2.7-7.97,3.52-22.39,8.18-28.13,10.42-12.81,33.16-20.91,48.63-25.66l31.98-8.83Z"/>
              <path class="cls-1" d="M70.31,721.96c8.42,1.75,16.8,4,25.05,6.43,17.27,5.08,42.64,13.08,54.56,27.06,4.9,5.74,4.18,11.73,5.78,18.88,4.76,21.34,16.86,38.53,35.88,49.41.09.83-.21.39-.67.34-1.95-.22-3.61-.08-5.51-.16-48.56-2.1-79.07-28.45-100.05-70.19-5.17-10.28-9.79-20.86-15.04-31.1v-.67Z"/>
              <path class="cls-1" d="M310.66,728.29c.68.04,1.12,4.31,1.18,5.14,2.53,39.65-5.73,71.24-43.76,88.52-3.49,1.59-27.6,10.72-29.54,9.78-.68-.32-.63-1.04-.69-1.66-.24-2.44.39-8.02.69-10.68,1.82-16.39,7.99-33.4,17.38-46.91,13.67-19.67,34.86-31.71,54.74-44.19Z"/>
              <path class="cls-1" d="M234.86,831.88c-14.6-3.33-29.23-8.51-41.93-16.51-25.02-15.75-31.21-40.35-32.02-68.58-.07-2.34.22-17.62,1.35-18.5,10.25,6.21,20.82,12.86,30.42,20.05,26.6,19.93,41.63,47.73,42.56,81.39.02.76-.15,1.45-.38,2.15Z"/>
            </g>
          </g>
        </g>
        <g>
          <path class="cls-1" d="M243.27,923.63c-3.4,5.49-5.72,10.17-7.03,12.94l-.5-1.43-.17-.41c-1.32-2.3-3.72-6.4-6.99-11.36-13.45-20.37-22.19-25.85-24.54-39.66-.58-3.42-1.31-8.04.3-13.54,3.52-12.03,16.42-21.93,30.61-22.35,15.86-.47,29.97,11.01,33.26,23.81,1.33,5.17.6,9.43,0,12.69-2.71,14.9-12.96,19.96-24.95,39.32Z"/>
          <path class="cls-1" d="M198.07,895.77s-.03.03-.05.07c-5.94,7.75-33.65,16.15-48.37,18.27l1.43-6.47c5.26-14.15,12.36-26.16,21.12-35.7l23.38-6.25c-1.62,7.35-1.45,15.39.47,25.23.31,1.59.97,2.81,1.48,3.8.19.35.43.78.53,1.05Z"/>
          <path class="cls-1" d="M275.42,896.74c2.28-10.08,4.16-19.85,1.95-31.13l23.38,6.2c3.11,3.02,10.73,14.58,13.49,19.55,2.47,4.42,8.18,17.05,9.97,23.21-19.47-3.28-35.12-9.01-48.8-17.83Z"/>
        </g>
      </g>
      <g>
        <g>
          <path class="cls-2" d="M435.83,422.1c10.31-9.26,22.57-16.46,35.8-21.08l-.04,42.43-53.84-.15c5.06-7.84,11.12-14.95,18.08-21.19Z"/>
          <path class="cls-2" d="M378.93,467.95h118.1v-96.62c-57.03,2.87-104.41,43.07-118.1,96.62ZM483.36,455.29l-85.54-.26,4.47-8.58c6.55-12.59,15.19-23.73,25.66-33.13,13.6-12.2,30.21-21.17,48.06-25.99l7.44-1.99-.09,69.95Z"/>
          <path class="cls-2" d="M497.02,480.71v36.48h-120.9c-.5-3.59-.83-7.23-1.01-10.88h43.44v-13.09h-43.44c.2-4.23.61-8.39,1.25-12.5h120.66Z"/>
          <path class="cls-2" d="M471.58,554.45l.04,42.43c-13.22-4.62-25.51-11.82-35.8-21.06-6.96-6.24-13.03-13.36-18.08-21.22l53.84-.15Z"/>
          <path class="cls-2" d="M378.53,529.95c13.11,54.36,60.89,95.37,118.49,98.26v-98.26h-118.49ZM476,610.57c-17.84-4.79-34.48-13.79-48.06-25.97-10.47-9.41-19.11-20.56-25.66-33.15l-4.47-8.58,85.54-.24.09,69.95-7.44-2.01Z"/>
          <path class="cls-2" d="M535.69,554.45l53.84.15c-5.06,7.86-11.12,14.95-18.08,21.22-10.31,9.24-22.57,16.44-35.82,21.06l.07-42.43Z"/>
          <path class="cls-2" d="M510.12,529.95v98.26c57.6-2.89,105.36-43.9,118.47-98.26h-118.47ZM579.32,584.6c-13.6,12.17-30.21,21.17-48.06,25.97l-7.44,2.01.09-69.95,85.54.24-4.49,8.58c-6.55,12.59-15.17,23.73-25.64,33.15Z"/>
          <path class="cls-2" d="M535.69,443.45l-.07-42.43c13.25,4.62,25.51,11.82,35.82,21.08,6.96,6.24,13.03,13.36,18.08,21.19l-53.84.15Z"/>
          <path class="cls-2" d="M588.59,493.21h43.42c-.2-4.23-.61-8.39-1.25-12.5h-120.64v36.48h120.88c.5-3.59.83-7.23,1.01-10.88h-43.42v-13.09ZM571.42,506.3h-39.96v-13.09h39.96v13.09ZM510.12,371.33v96.62h118.08c-13.68-53.55-61.04-93.75-118.08-96.62ZM523.82,385.34l7.44,1.99c17.84,4.82,34.46,13.79,48.06,25.99,10.47,9.39,19.09,20.54,25.64,33.13l4.49,8.58-85.54.26-.09-69.95Z"/>
        </g>
        <rect class="cls-3" x="433.51" y="493.21" width="39.96" height="13.1"/>
        <g>
          <path class="cls-3" d="M503.57,358.04c-78.14,0-141.72,63.58-141.72,141.72s63.58,141.72,141.72,141.72,141.72-63.58,141.72-141.72-63.58-141.72-141.72-141.72ZM497.02,628.21c-57.6-2.89-105.38-43.9-118.49-98.26h118.49v98.26ZM497.02,517.19h-120.9c-.5-3.59-.83-7.23-1.01-10.88h43.44v-13.09h-43.44c.2-4.23.61-8.39,1.25-12.5h120.66v36.48ZM497.02,467.95h-118.1c13.68-53.55,61.06-93.75,118.1-96.62v96.62ZM510.12,371.33c57.03,2.87,104.39,43.07,118.08,96.62h-118.08v-96.62ZM510.12,628.21v-98.26h118.47c-13.11,54.36-60.87,95.37-118.47,98.26ZM631,517.19h-120.88v-36.48h120.64c.64,4.12,1.05,8.28,1.25,12.5h-43.42v13.09h43.42c-.18,3.66-.5,7.29-1.01,10.88Z"/>
          <rect class="cls-3" x="531.46" y="493.21" width="39.96" height="13.09"/>
        </g>
        <g>
          <g>
            <path class="cls-2" d="M589.53,443.29l-53.84.15-.07-42.43c13.25,4.62,25.51,11.82,35.82,21.08,6.96,6.24,13.03,13.36,18.08,21.19Z"/>
            <path class="cls-3" d="M604.96,446.45c-6.55-12.59-15.17-23.73-25.64-33.13-13.6-12.2-30.21-21.17-48.06-25.99l-7.44-1.99.09,69.95,85.54-.26-4.49-8.58ZM535.69,443.45l-.07-42.43c13.25,4.62,25.51,11.82,35.82,21.08,6.96,6.24,13.03,13.36,18.08,21.19l-53.84.15Z"/>
          </g>
          <g>
            <path class="cls-2" d="M471.63,401.01l-.04,42.43-53.84-.15c5.06-7.84,11.12-14.95,18.08-21.19,10.31-9.26,22.57-16.46,35.8-21.08Z"/>
            <path class="cls-3" d="M476,387.33c-17.84,4.82-34.46,13.79-48.06,25.99-10.47,9.39-19.11,20.54-25.66,33.13l-4.47,8.58,85.54.26.09-69.95-7.44,1.99ZM471.58,443.45l-53.84-.15c5.06-7.84,11.12-14.95,18.08-21.19,10.31-9.26,22.57-16.46,35.8-21.08l-.04,42.43Z"/>
          </g>
        </g>
        <g>
          <g>
            <path class="cls-2" d="M589.53,554.6c-5.06,7.86-11.12,14.95-18.08,21.22-10.31,9.24-22.57,16.44-35.82,21.06l.07-42.43,53.84.15Z"/>
            <path class="cls-3" d="M523.91,542.63l-.09,69.95,7.44-2.01c17.84-4.79,34.46-13.79,48.06-25.97,10.47-9.41,19.09-20.56,25.64-33.15l4.49-8.58-85.54-.24ZM535.62,596.88l.07-42.43,53.84.15c-5.06,7.86-11.12,14.95-18.08,21.22-10.31,9.24-22.57,16.44-35.82,21.06Z"/>
          </g>
          <g>
            <path class="cls-2" d="M471.63,596.88c-13.22-4.62-25.51-11.82-35.8-21.06-6.96-6.24-13.03-13.36-18.08-21.22l53.84-.15.04,42.43Z"/>
            <path class="cls-3" d="M483.36,542.63l-85.54.24,4.47,8.58c6.55,12.59,15.19,23.73,25.66,33.15,13.57,12.17,30.21,21.17,48.06,25.97l7.44,2.01-.09-69.95ZM471.58,554.45l.04,42.43c-13.22-4.62-25.51-11.82-35.8-21.06-6.96-6.24-13.03-13.36-18.08-21.22l53.84-.15Z"/>
          </g>
        </g>
      </g>
    </g>
  </g>
</svg>