<?xml version="1.0" encoding="UTF-8"?>
<svg id="Layer_2" data-name="Layer 2" xmlns="http://www.w3.org/2000/svg" viewBox="0 0 1058.15 683.31">
  <defs>
    <style>
      .cls-1 {
        fill: #d30000;
      }

      .cls-2 {
        fill: #ff9f2c;
      }

      .cls-3 {
        fill: #fff;
      }

      .cls-4 {
        fill: #0404a5;
      }
    </style>
  </defs>
  <g id="Layer_1-2" data-name="Layer 1">
    <g>
      <rect class="cls-2" y="514.01" width="1058.15" height="169.29" rx="16.26" ry="16.26"/>
      <g>
        <path class="cls-4" d="M644.71,17.68c-1.91.69-3.21,2.02-3.9,3.99-.69,1.97-1.04,5.14-1.04,9.53v85.97c0,4.39.35,7.57,1.04,9.53.69,1.97,1.99,3.29,3.9,3.99,1.91.69,4.94,1.16,9.1,1.39v3.47c-4.85-.35-12.25-.52-22.19-.52-9.36,0-16.7.17-22.01.52v-3.47c4.16-.23,7.19-.69,9.1-1.39,1.91-.69,3.21-2.02,3.9-3.99.69-1.96,1.04-5.14,1.04-9.53v-41.6h-56.33v41.6c0,4.39.35,7.57,1.04,9.53.69,1.97,1.99,3.29,3.9,3.99,1.91.69,4.94,1.16,9.1,1.39v3.47c-5.32-.35-12.65-.52-22.01-.52-9.94,0-17.33.17-22.18.52v-3.47c4.16-.23,7.19-.69,9.1-1.39,1.91-.69,3.21-2.02,3.9-3.99.69-1.96,1.04-5.14,1.04-9.53V31.2c0-4.39-.35-7.57-1.04-9.53-.69-1.96-1.99-3.29-3.9-3.99-1.91-.69-4.94-1.15-9.1-1.39v-3.47c4.85.35,12.25.52,22.18.52,9.24,0,16.58-.17,22.01-.52v3.47c-4.16.23-7.19.69-9.1,1.39-1.91.69-3.21,2.02-3.9,3.99-.69,1.97-1.04,5.14-1.04,9.53v40.9h56.33V31.2c0-4.39-.35-7.57-1.04-9.53-.69-1.96-1.99-3.29-3.9-3.99-1.91-.69-4.94-1.15-9.1-1.39v-3.47c5.31.35,12.65.52,22.01.52,9.94,0,17.33-.17,22.19-.52v3.47c-4.16.23-7.19.69-9.1,1.39Z"/>
        <path class="cls-4" d="M674,131.29c-3.53-3.64-5.29-8.69-5.29-15.17,0-5.2,1.41-9.47,4.25-12.83,2.83-3.35,6.18-6.01,10.05-7.97,3.87-1.96,8.98-4.04,15.34-6.24,6.47-2.19,11.27-4.22,14.39-6.07,3.12-1.85,4.68-4.33,4.68-7.45v-10.75c0-6.7-1.42-11.29-4.25-13.78-2.83-2.48-6.79-3.73-11.87-3.73-8.09,0-13.81,2.08-17.16,6.24,2.31.58,4.25,1.79,5.81,3.64,1.56,1.85,2.34,4.16,2.34,6.93s-.93,5.17-2.77,6.85c-1.85,1.68-4.22,2.51-7.11,2.51-3.24,0-5.66-1.01-7.28-3.03-1.62-2.02-2.43-4.48-2.43-7.37s.66-5.08,1.99-6.93c1.33-1.85,3.32-3.7,5.98-5.55,2.77-1.96,6.3-3.58,10.57-4.85,4.27-1.27,8.95-1.91,14.04-1.91,9.01,0,15.83,2.14,20.45,6.41,2.89,2.66,4.82,5.87,5.81,9.62.98,3.76,1.47,8.7,1.47,14.82v48.18c0,2.89.4,4.97,1.21,6.24.81,1.27,2.19,1.91,4.16,1.91,1.39,0,2.69-.32,3.9-.95,1.21-.63,2.51-1.53,3.9-2.69l1.91,2.95c-3.01,2.31-5.58,3.96-7.71,4.94-2.14.98-4.83,1.47-8.06,1.47-5.55,0-9.42-1.39-11.61-4.16-2.2-2.77-3.29-6.53-3.29-11.27-3.47,5.78-7.45,9.79-11.96,12.05-4.51,2.25-9.59,3.38-15.25,3.38-7.28,0-12.68-1.82-16.21-5.46ZM717.42,116.64v-33.97c-1.04,1.62-2.49,2.95-4.33,3.99-1.85,1.04-4.68,2.43-8.49,4.16-4.39,1.85-7.95,3.61-10.66,5.29-2.72,1.68-5.06,3.96-7.02,6.85-1.97,2.89-2.95,6.59-2.95,11.09,0,5.2,1.27,9.13,3.81,11.79,2.54,2.66,5.89,3.99,10.05,3.99,7.63,0,14.15-4.39,19.59-13.17Z"/>
        <path class="cls-4" d="M831.63,50.44c2.19,2.31,3.75,5.2,4.68,8.67.92,3.47,1.39,8.15,1.39,14.04v46.28c0,4.74.98,8,2.95,9.79,1.96,1.79,5.37,2.69,10.23,2.69v3.64c-10.63-.46-17.56-.69-20.8-.69s-9.71.23-19.41.69v-3.64c4.27,0,7.25-.89,8.93-2.69,1.67-1.79,2.51-5.05,2.51-9.79v-50.09c0-6.47-.93-11.41-2.77-14.82-1.85-3.41-5.61-5.11-11.27-5.11-4.74,0-8.96,1.39-12.65,4.16-3.7,2.77-6.56,6.56-8.58,11.35-2.02,4.8-3.03,10.14-3.03,16.03v38.48c0,4.74.84,8,2.51,9.79,1.67,1.79,4.65,2.69,8.93,2.69v3.64c-9.71-.46-16.18-.69-19.41-.69s-10.17.23-20.8.69v-3.64c4.85,0,8.26-.89,10.23-2.69,1.96-1.79,2.95-5.05,2.95-9.79v-54.25c0-5.31-.98-9.19-2.95-11.61-1.97-2.43-5.37-3.64-10.23-3.64v-3.64c3.7.35,7.28.52,10.75.52,7.28,0,13.29-.81,18.03-2.43v20.45c2.89-7.39,6.9-12.74,12.05-16.03,5.14-3.29,10.95-4.94,17.42-4.94,8.09,0,14.21,2.2,18.37,6.59Z"/>
        <path class="cls-4" d="M889,119.42c0,4.74.98,8,2.95,9.79,1.96,1.79,5.37,2.69,10.23,2.69v3.64c-10.63-.46-17.62-.69-20.97-.69s-10.34.23-20.97.69v-3.64c4.85,0,8.26-.89,10.23-2.69,1.96-1.79,2.95-5.05,2.95-9.79v-54.25c0-5.31-.98-9.19-2.95-11.61-1.97-2.43-5.37-3.64-10.23-3.64v-3.64c3.7.35,7.28.52,10.75.52,7.28,0,13.29-.81,18.03-2.43v75.05ZM887.78,6.24c2.19,2.2,3.29,4.8,3.29,7.8s-1.1,5.61-3.29,7.8c-2.2,2.2-4.8,3.29-7.8,3.29s-5.61-1.1-7.8-3.29c-2.2-2.19-3.29-4.79-3.29-7.8s1.1-5.6,3.29-7.8c2.19-2.19,4.79-3.29,7.8-3.29s5.6,1.1,7.8,3.29Z"/>
        <path class="cls-4" d="M970.63,4.68c3.58,2.89,5.37,6.47,5.37,10.75,0,2.66-.87,4.85-2.6,6.59-1.73,1.73-3.93,2.6-6.59,2.6s-4.91-.84-6.76-2.51c-1.85-1.67-2.77-3.96-2.77-6.85,0-2.43.66-4.39,1.99-5.89,1.33-1.5,3.09-2.48,5.29-2.95-.35-1.15-1.27-2.08-2.77-2.77-1.5-.69-3.41-1.04-5.72-1.04-2.54,0-4.8.58-6.76,1.73-1.97,1.16-3.47,2.72-4.51,4.68-1.27,2.31-2.11,5.72-2.51,10.23-.41,4.51-.61,12.08-.61,22.7v4.51h18.55v3.47h-18.55v67.77c0,5.32,1.53,9.01,4.59,11.09,3.06,2.08,7.65,3.12,13.78,3.12v3.64l-4.16-.17c-11.79-.35-19.3-.52-22.53-.52-3.01,0-9.82.23-20.45.69v-3.64c4.85,0,8.26-.89,10.23-2.69,1.96-1.79,2.95-5.05,2.95-9.79V49.92h-13.87v-3.47h13.87c0-10.17.63-18.03,1.91-23.57,1.27-5.55,3.58-10.28,6.93-14.21,2.31-2.66,5.26-4.77,8.84-6.33,3.58-1.56,7.51-2.34,11.79-2.34,6.01,0,11.03,1.56,15.08,4.68Z"/>
        <path class="cls-4" d="M644.71,188.62c-1.91.69-3.21,2.02-3.9,3.99-.69,1.97-1.04,5.14-1.04,9.53v85.97c0,4.39.35,7.57,1.04,9.53.69,1.97,1.99,3.29,3.9,3.99,1.91.69,4.94,1.16,9.1,1.39v3.47c-4.85-.35-12.25-.52-22.19-.52-9.36,0-16.7.17-22.01.52v-3.47c4.16-.23,7.19-.69,9.1-1.39,1.91-.69,3.21-2.02,3.9-3.99.69-1.96,1.04-5.14,1.04-9.53v-41.6h-56.33v41.6c0,4.39.35,7.57,1.04,9.53.69,1.97,1.99,3.29,3.9,3.99,1.91.69,4.94,1.16,9.1,1.39v3.47c-5.32-.35-12.65-.52-22.01-.52-9.94,0-17.33.17-22.18.52v-3.47c4.16-.23,7.19-.69,9.1-1.39,1.91-.69,3.21-2.02,3.9-3.99.69-1.96,1.04-5.14,1.04-9.53v-85.97c0-4.39-.35-7.57-1.04-9.53-.69-1.96-1.99-3.29-3.9-3.99-1.91-.69-4.94-1.15-9.1-1.39v-3.47c4.85.35,12.25.52,22.18.52,9.24,0,16.58-.17,22.01-.52v3.47c-4.16.23-7.19.69-9.1,1.39-1.91.69-3.21,2.02-3.9,3.99-.69,1.97-1.04,5.14-1.04,9.53v40.9h56.33v-40.9c0-4.39-.35-7.57-1.04-9.53-.69-1.96-1.99-3.29-3.9-3.99-1.91-.69-4.94-1.15-9.1-1.39v-3.47c5.31.35,12.65.52,22.01.52,9.94,0,17.33-.17,22.19-.52v3.47c-4.16.23-7.19.69-9.1,1.39Z"/>
        <path class="cls-4" d="M674,302.23c-3.53-3.64-5.29-8.69-5.29-15.17,0-5.2,1.41-9.47,4.25-12.83,2.83-3.35,6.18-6.01,10.05-7.97,3.87-1.96,8.98-4.04,15.34-6.24,6.47-2.19,11.27-4.22,14.39-6.07,3.12-1.85,4.68-4.33,4.68-7.45v-10.75c0-6.7-1.42-11.29-4.25-13.78-2.83-2.48-6.79-3.73-11.87-3.73-8.09,0-13.81,2.08-17.16,6.24,2.31.58,4.25,1.79,5.81,3.64,1.56,1.85,2.34,4.16,2.34,6.93s-.93,5.17-2.77,6.85c-1.85,1.68-4.22,2.51-7.11,2.51-3.24,0-5.66-1.01-7.28-3.03-1.62-2.02-2.43-4.48-2.43-7.37s.66-5.08,1.99-6.93c1.33-1.85,3.32-3.7,5.98-5.55,2.77-1.96,6.3-3.58,10.57-4.85,4.27-1.27,8.95-1.91,14.04-1.91,9.01,0,15.83,2.14,20.45,6.41,2.89,2.66,4.82,5.87,5.81,9.62.98,3.76,1.47,8.7,1.47,14.82v48.18c0,2.89.4,4.97,1.21,6.24.81,1.27,2.19,1.91,4.16,1.91,1.39,0,2.69-.32,3.9-.95,1.21-.63,2.51-1.53,3.9-2.69l1.91,2.95c-3.01,2.31-5.58,3.96-7.71,4.94-2.14.98-4.83,1.47-8.06,1.47-5.55,0-9.42-1.39-11.61-4.16-2.2-2.77-3.29-6.53-3.29-11.27-3.47,5.78-7.45,9.79-11.96,12.05-4.51,2.25-9.59,3.38-15.25,3.38-7.28,0-12.68-1.82-16.21-5.46ZM717.42,287.59v-33.97c-1.04,1.62-2.49,2.95-4.33,3.99-1.85,1.04-4.68,2.43-8.49,4.16-4.39,1.85-7.95,3.61-10.66,5.29-2.72,1.68-5.06,3.96-7.02,6.85-1.97,2.89-2.95,6.59-2.95,11.09,0,5.2,1.27,9.13,3.81,11.79,2.54,2.66,5.89,3.99,10.05,3.99,7.63,0,14.15-4.39,19.59-13.17Z"/>
        <path class="cls-4" d="M830.33,226.93c6.07,8.09,9.1,19.76,9.1,35.01,0,10.05-1.73,18.6-5.2,25.65-3.47,7.05-8.12,12.37-13.95,15.95-5.84,3.58-12.34,5.37-19.5,5.37-4.28,0-8.41-.87-12.39-2.6-3.99-1.73-7.48-4.22-10.48-7.45l-12.31,10.4-2.95-1.21c.81-2.89,1.21-6.24,1.21-10.05v-106.42c0-5.31-.98-9.19-2.95-11.61-1.97-2.43-5.37-3.64-10.23-3.64v-3.64c3.7.35,7.28.52,10.75.52,7.28,0,13.29-.81,18.03-2.43v62.57c2.54-5.89,6.21-10.46,11.01-13.69,4.79-3.23,10.14-4.85,16.03-4.85,9.82,0,17.77,4.05,23.83,12.13ZM816.81,294.44c3.87-6.99,5.81-17.82,5.81-32.5s-1.73-24.61-5.2-31.54c-3.47-6.93-8.78-10.4-15.95-10.4-4.85,0-9.3,1.88-13.35,5.63-4.05,3.76-6.93,9.04-8.67,15.86v54.94c2.66,2.77,5.72,4.88,9.19,6.33,3.47,1.45,7.05,2.17,10.75,2.17,7.74,0,13.55-3.49,17.42-10.49Z"/>
        <path class="cls-4" d="M883.1,290.36c0,4.74.98,8,2.95,9.79,1.96,1.79,5.37,2.69,10.23,2.69v3.64c-10.63-.46-17.62-.69-20.97-.69s-10.34.23-20.97.69v-3.64c4.85,0,8.26-.89,10.23-2.69,1.96-1.79,2.95-5.05,2.95-9.79v-54.25c0-5.31-.98-9.19-2.95-11.61-1.97-2.43-5.37-3.64-10.23-3.64v-3.64c3.7.35,7.28.52,10.75.52,7.28,0,13.29-.81,18.03-2.43v75.05ZM881.89,177.19c2.19,2.2,3.29,4.8,3.29,7.8s-1.1,5.61-3.29,7.8c-2.2,2.2-4.8,3.29-7.8,3.29s-5.61-1.1-7.8-3.29c-2.2-2.19-3.29-4.79-3.29-7.8s1.1-5.6,3.29-7.8c2.19-2.19,4.79-3.29,7.8-3.29s5.6,1.1,7.8,3.29Z"/>
        <path class="cls-4" d="M982.16,226.93c6.07,8.09,9.1,19.76,9.1,35.01,0,10.05-1.73,18.6-5.2,25.65-3.47,7.05-8.12,12.37-13.95,15.95-5.84,3.58-12.34,5.37-19.5,5.37-4.28,0-8.41-.87-12.39-2.6-3.99-1.73-7.48-4.22-10.48-7.45l-12.31,10.4-2.95-1.21c.81-2.89,1.21-6.24,1.21-10.05v-106.42c0-5.31-.98-9.19-2.95-11.61-1.97-2.43-5.37-3.64-10.23-3.64v-3.64c3.7.35,7.28.52,10.75.52,7.28,0,13.29-.81,18.03-2.43v62.57c2.54-5.89,6.21-10.46,11.01-13.69,4.79-3.23,10.14-4.85,16.03-4.85,9.82,0,17.77,4.05,23.83,12.13ZM968.64,294.44c3.87-6.99,5.81-17.82,5.81-32.5s-1.73-24.61-5.2-31.54c-3.47-6.93-8.78-10.4-15.95-10.4-4.85,0-9.3,1.88-13.35,5.63-4.05,3.76-6.93,9.04-8.67,15.86v54.94c2.66,2.77,5.72,4.88,9.19,6.33,3.47,1.45,7.05,2.17,10.75,2.17,7.74,0,13.55-3.49,17.42-10.49Z"/>
        <path class="cls-4" d="M664.29,358.62c4.79,4.22,7.19,9.91,7.19,17.07,0,5.55-1.5,10.37-4.51,14.47-3.01,4.1-6.99,7.37-11.96,9.79-4.39,2.08-12.94,5.09-25.65,9.01,6.47,2.77,11.24,6.73,14.3,11.87,3.06,5.14,4.59,11.01,4.59,17.59,0,7.17-2.14,13.93-6.41,20.28-4.28,6.36-10.4,11.47-18.37,15.34-7.97,3.87-17.33,5.81-28.08,5.81-10.05,0-19.38-1.76-27.99-5.29-8.61-3.52-15.45-8.55-20.54-15.08-5.09-6.53-7.63-14.13-7.63-22.79,0-7.63,1.88-14.07,5.63-19.33,3.75-5.26,8.06-9.24,12.91-11.96,4.85-2.71,9.36-4.59,13.52-5.63-5.66-2.43-10-5.66-13-9.71-3.01-4.04-4.51-8.26-4.51-12.65,0-3.81,1.13-7.37,3.38-10.66,2.25-3.29,5.6-5.95,10.05-7.97,4.45-2.02,9.73-3.03,15.86-3.03,7.74,0,13.75,1.73,18.02,5.2,2.08,1.73,3.67,3.67,4.77,5.81,1.1,2.14,1.65,4.19,1.65,6.15,0,2.77-.98,5-2.95,6.67-1.97,1.68-4.22,2.51-6.76,2.51s-4.54-.78-6.33-2.34c-1.79-1.56-2.69-3.67-2.69-6.33s.87-4.71,2.6-6.5c1.73-1.79,3.93-2.8,6.59-3.03-.58-1.5-2.05-2.8-4.42-3.9-2.37-1.1-5.29-1.65-8.75-1.65-6.01,0-10.86,1.82-14.56,5.46-3.7,3.64-5.55,8.7-5.55,15.17,0,7.74,2.95,14.33,8.84,19.76,4.04-.69,7.63-1.04,10.75-1.04,2.08,0,3.75.35,5.03,1.04,1.27.69,1.91,1.68,1.91,2.95,0,1.04-.43,1.85-1.3,2.43-.87.58-2.05.87-3.55.87-1.85,0-3.76-.35-5.72-1.04-1.97-.69-4.28-1.62-6.93-2.77-15.02,4.51-22.53,13.98-22.53,28.42,0,7.74,2.02,14.44,6.07,20.1,4.04,5.66,9.59,9.97,16.64,12.91,7.05,2.95,14.96,4.42,23.74,4.42,8.2,0,15.8-1.3,22.79-3.9,6.99-2.6,12.54-6.3,16.64-11.09,4.1-4.79,6.15-10.37,6.15-16.72,0-4.62-1.21-9.3-3.64-14.04-2.43-4.74-7.05-8.43-13.87-11.09-9.01,2.77-15.66,4.97-19.93,6.59-4.85,1.85-8.61,3.96-11.27,6.33-2.66,2.37-3.99,5.29-3.99,8.75,0,4.16,1.7,7.51,5.11,10.05,3.41,2.54,7.02,3.81,10.83,3.81,1.96,0,4.1-.35,6.41-1.04,2.31-.69,3.64-1.62,3.99-2.77-2.2-.46-4.1-1.39-5.72-2.77-1.62-1.39-2.43-3.41-2.43-6.07s.89-4.97,2.69-6.59c1.79-1.62,4.07-2.43,6.85-2.43s5,.87,6.67,2.6c1.67,1.73,2.51,3.99,2.51,6.76,0,4.62-2.14,8.26-6.41,10.92-4.28,2.66-9.01,3.99-14.21,3.99-5.66,0-10.66-1.7-14.99-5.11-4.33-3.41-6.5-8.46-6.5-15.17,0-5.89,1.99-10.89,5.98-14.99,3.99-4.1,9.97-7.54,17.94-10.31l12.31-3.64c6.93-1.96,12.71-3.7,17.33-5.2,4.62-1.5,8.84-3.12,12.65-4.85,5.55-2.54,9.42-5.14,11.61-7.8,2.19-2.66,3.29-5.6,3.29-8.84,0-4.85-1.99-8.98-5.98-12.39-3.99-3.41-8.7-5.11-14.13-5.11-2.89,0-4.62.52-5.2,1.56,1.5.69,2.69,1.82,3.55,3.38.87,1.56,1.3,3.09,1.3,4.59,0,2.43-.95,4.45-2.86,6.07-1.91,1.62-4.19,2.43-6.85,2.43-2.43,0-4.57-.75-6.41-2.25-1.85-1.5-2.77-3.64-2.77-6.41,0-4.16,1.93-7.19,5.81-9.1,3.87-1.91,8.29-2.86,13.26-2.86,7.28,0,13.32,2.11,18.11,6.33Z"/>
        <path class="cls-4" d="M803.55,355.24c4.85,1.97,9.59,4.74,14.21,8.32,1.27,1.04,2.37,1.56,3.29,1.56,2.31,0,3.81-3.47,4.51-10.4h3.99c-.46,7.51-.69,20.8-.69,39.86h-3.99c-1.27-7.51-2.43-12.91-3.47-16.21-1.04-3.29-2.77-6.44-5.2-9.45-3.47-4.51-7.89-7.89-13.26-10.14-5.37-2.25-11.18-3.38-17.42-3.38-7.51,0-14.07,2.49-19.67,7.45-5.61,4.97-9.97,12.05-13.09,21.23-3.12,9.19-4.68,19.96-4.68,32.32s1.67,23.4,5.03,32.41c3.35,9.01,8,15.86,13.95,20.54,5.95,4.68,12.68,7.02,20.19,7.02,5.78,0,11.38-1.1,16.81-3.29,5.43-2.19,9.71-5.49,12.83-9.88,2.31-3.23,3.99-6.7,5.03-10.4,1.04-3.7,2.02-9.36,2.95-16.99h3.99c0,19.88.23,33.74.69,41.6h-3.99c-.35-3.7-.84-6.33-1.47-7.89-.64-1.56-1.53-2.34-2.69-2.34-.93,0-2.14.46-3.64,1.39-5.2,3.7-10.17,6.5-14.91,8.41-4.74,1.91-10.46,2.86-17.16,2.86-10.98,0-20.6-2.48-28.86-7.45-8.26-4.97-14.68-12.16-19.24-21.58-4.57-9.42-6.85-20.65-6.85-33.71s2.34-23.97,7.02-33.8c4.68-9.82,11.21-17.45,19.59-22.88,8.38-5.43,17.88-8.15,28.51-8.15,6.93,0,12.83.98,17.68,2.95Z"/>
        <path class="cls-4" d="M911.01,391.29c5.43,3.58,8.15,8.03,8.15,13.35,0,3.01-.87,5.37-2.6,7.11-1.73,1.73-3.93,2.6-6.59,2.6s-4.91-.78-6.76-2.34c-1.85-1.56-2.77-3.67-2.77-6.33,0-2.43.69-4.48,2.08-6.15,1.39-1.67,3.12-2.8,5.2-3.38-1.16-2.08-3.21-3.81-6.15-5.2-2.95-1.39-6.1-2.08-9.45-2.08-4.28,0-8.26,1.36-11.96,4.07-3.7,2.72-6.76,7.22-9.19,13.52-2.43,6.3-3.64,14.59-3.64,24.87,0,14.33,2.31,24.76,6.93,31.28,4.62,6.53,10.63,9.79,18.02,9.79,4.97,0,9.68-1.44,14.13-4.33,4.45-2.89,8.12-7.39,11.01-13.52l3.29,1.21c-1.97,6.59-5.63,12.25-11.01,16.99-5.37,4.74-12.34,7.11-20.88,7.11-7.17,0-13.67-1.85-19.5-5.55-5.84-3.7-10.43-9.04-13.78-16.03-3.35-6.99-5.03-15.11-5.03-24.35s1.7-17.68,5.11-24.96c3.41-7.28,8.17-12.97,14.3-17.07,6.12-4.1,13.11-6.15,20.97-6.15s14.44,1.85,20.1,5.55Z"/>
        <path class="cls-4" d="M1004.51,397.44c7.22,7.8,10.83,19.61,10.83,35.44s-3.61,27.62-10.83,35.36c-7.22,7.74-16.73,11.61-28.51,11.61s-21.29-3.87-28.51-11.61c-7.22-7.74-10.83-19.53-10.83-35.36s3.61-27.64,10.83-35.44c7.22-7.8,16.73-11.7,28.51-11.7s21.29,3.9,28.51,11.7ZM959.54,399.87c-4.05,7.11-6.07,18.11-6.07,33.02s2.02,25.88,6.07,32.93c4.04,7.05,9.53,10.57,16.47,10.57s12.42-3.52,16.47-10.57c4.04-7.05,6.07-18.03,6.07-32.93s-2.02-25.91-6.07-33.02c-4.05-7.11-9.53-10.66-16.47-10.66s-12.42,3.55-16.47,10.66Z"/>
        <path class="cls-4" d="M1054.86,460.96c2.19,2.2,3.29,4.8,3.29,7.8s-1.1,5.61-3.29,7.8c-2.2,2.19-4.8,3.29-7.8,3.29s-5.61-1.1-7.8-3.29c-2.2-2.19-3.29-4.79-3.29-7.8s1.1-5.6,3.29-7.8c2.19-2.19,4.79-3.29,7.8-3.29s5.6,1.1,7.8,3.29Z"/>
      </g>
      <g>
        <path class="cls-4" d="M248.86,245.59h142.19c51.07,0,92.54,41.46,92.54,92.54v142.19h-142.19c-51.07,0-92.54-41.46-92.54-92.54v-142.19h0Z"/>
        <path class="cls-2" d="M0,245.59h142.19c51.07,0,92.54,41.46,92.54,92.54v142.19H92.54c-51.07,0-92.54-41.46-92.54-92.54v-142.19h0Z" transform="translate(480.32 245.59) rotate(90)"/>
        <path class="cls-4" d="M0,.39h142.19c51.07,0,92.54,41.46,92.54,92.54v142.19H92.54C41.46,235.12,0,193.66,0,142.59V.39h0Z"/>
        <path class="cls-1" d="M399.93,86.25c11.19-16.5,22.38-33,33.57-49.5l-43.17,33.23c-1.26-1.37-2.51-2.55-3.65-3.53l-3.85-3.12c2.6-1.69,4.55-4.22,6.09-6.9,3.17-5.48,4.67-12.03,3.57-18.33-6.35,1.15-11.01,5.28-14.62,10.35l-3.81-.67h0c-7.46-2.37-15.33-2.71-23.11-2.11-7.65.59-20.52,4.2-26.83-.97-1.8-1.46-1.92-2.45-2.89-4.34-.17-.31.16-.57-.63-.44-1.76,5.57-.83,11.07,3.31,15.27l6.36,3.77c-12.12,2.26-29.24,17.01-41.59,10.62-4.09-2.12-5.05-5.06-6.23-9.17-.09-.31-.08-.92-.52-.84-1.06,11.47,8.24,21.57,19.49,22.65,2.19.21,4.97,0,7.25,0,.17,0,1.06-.74,1.06,0-5.03,2.03-9.81,5.16-14.94,6.95-9.37,3.29-18.51.09-24.09-7.94l-3.56-6.56c-1.71,17.12,9.01,38.52,28.56,37.16l6.18-1.07c-13.62,9.17-31.23,11.86-45.31,1.97.19,1.83,1.56,13.69,10.35,18.04,1.11.55,2.46,1.04,4.1,1.32-.38.52-1.85,2.44-4.53,3.03-3.79.83-6.65-1.74-6.92-1.99-1.22,4.19-.03,8.53,2.99,11,2.75,2.25,6.01,2.11,6.91,2.05-5.31,5.99-9.11,11.24-11.48,14.71-6.38,9.36-21.25,31.75-22.96,62.03-.29,5.1-.13,9.22,0,11.56,48.42.21,96.84.42,145.26.63,15.65-18.59,16.11-33.97,15.83-39.88-1.08-22.34-19.52-46.2-31.24-56.38-1.72-1.49-5.33-4.52-8.32-9.73-5.14-8.93-5.25-18.56-4.5-25.38,0-.03,0-.05,0-.05.02,0,0,.51,0,.51-.01.26.02,16.11,8.71,24.27,4.82,4.52,6.29,1.08,14.82,6.19,4.86,2.91,6.33,5.21,17.68,16.62,3.83,3.85,6.96,6.9,8.86,8.74,2.45-.23,6.37-.9,10.61-3.07,2.19-1.12,12.53-6.42,13.71-16.18.66-5.49-1.85-10.06-3.48-13.03-2.16-3.93-3.64-4.5-7.41-9.12-4.89-6.01-7.5-11.43-9.51-15.62-2.02-4.2-4.33-9.83-6.11-16.75ZM383.8,92.57c-.26-1.45.12-2.54-.44-4.1-.29-.82-3.5-5.07-3.25-5.34,2.8,2.75,6.29,3.25,9.82,4.51l5.58,10.59c-2.91-1.13-11.07-2.06-11.71-5.66Z"/>
        <g id="aPXjgN">
          <g>
            <path class="cls-1" d="M95.41,400.48c-9.97-.28-20.2-1.82-29.29-6.06-1.17-.54-3.95-2.35-4.92-2.43-1.15-.1-2.55.37-3.67.66-4.57,1.19-8.96,3.16-13.32,4.92l-2.45,1.31c11.43,2.14,21.53,8.58,33.06,10.37,3.3.57,7.49.94,12.29.48,6.29-.59,10.84-2.32,13.07-3.19,4.68-1.82,7.72-3.86,8.59-4.4.7-.43,1.58-.89,2.09-1.51-5.13-.38-10.3-.01-15.44-.16ZM153.75,408.9c10.79-2.11,20.38-7.87,31.16-10.11l.16-.24c-1.37-.47-2.7-1.21-4.05-1.79-3.43-1.47-7.44-2.98-11.02-4.01-.95-.28-2.98-.95-3.87-.91-.87.04-4.23,2.15-5.34,2.66-8.99,4.2-20.31,5.83-30.18,6.13-4.79.15-9.55-.33-14.32,0-.23.19.63.68.75.77,4.12,2.93,11.1,5.95,16.01,7.18,2.97.71,6.86,1.34,11.42,1.3,3.59-.03,6.73-.46,9.28-.99Z"/>
            <g>
              <path class="cls-1" d="M113.58,290.1c1.94,2.42,3.77,4.93,5.57,7.47,9.23,13.03,21.46,31.99,18.06,48.71-1.2,5.88-5.96,11.59-10.19,15.64-.96-6.91-3.57-13.39-7.55-19.08-.63-.91-5.42-7.16-5.97-7.14-6.92,7.2-12.05,16.18-13.28,26.23-.62-.01-5.34-5.78-5.97-6.67-5.43-7.74-5.84-16.13-3.47-25.16,3.88-14.79,13.73-27.77,22.47-39.99h.32Z"/>
              <path class="cls-1" d="M154.21,358.72c-.55-3.62-.45-7.31-.8-10.96-.12-1.19-.22-2.87-.49-3.99-.04-.18-.05-.31-.24-.41l-12.87,8c.36-1.93,1.32-3.59,1.71-5.57.96-4.81.11-11.29-1.15-16.03-.38-1.42-1.75-4.62-1.69-5.83.06-1.12,2.41-3.98,3.21-4.96,4.72-5.78,10.91-11.03,17.03-15.26.31,0,1.35,2.48,1.55,2.91,5.42,12.21,9.15,27.28,6.32,40.61-.2.96-.67,3.35-1.23,4.05-.83,1.06-5.59,3.13-7.09,4.1s-2.81,2.26-4.26,3.33Z"/>
              <path class="cls-1" d="M87.18,351.04l-12.56-7.68c-.31-.02-.31.2-.39.41-.24.59-.4,2.45-.48,3.2-.42,3.91-.28,7.87-.8,11.76-.95-.57-1.67-1.46-2.57-2.15-2.53-1.93-5.53-3.33-8.36-4.75-1.45-2.55-2.2-5.92-2.34-8.86-.62-13.57,1.53-25.33,7.38-37.56.32-.67.58-1.77,1.41-1.46.64.24,2.8,2.03,3.51,2.57,5.06,3.87,11.01,9.37,14.8,14.48.34.45,1.73,2.29,1.82,2.66.16.65-1.22,4.04-1.49,5-1.38,4.86-2.36,11.04-1.66,16.05.31,2.18,1.15,4.24,1.74,6.34Z"/>
              <g>
                <path class="cls-1" d="M193.71,346.73v.48c-4.99,8.77-8.38,18.68-14.33,26.86-10.38,14.26-25.31,21.38-42.84,22.26-.28.01-1.33.09-1.21-.4,7.46-4.56,12.92-10.77,15.75-19.12,1.3-3.83,1.69-10.75,3.93-13.51,5-6.15,15.92-10.04,23.35-12.32l15.36-4.24Z"/>
                <path class="cls-1" d="M33.76,347.05c4.04.84,8.07,1.92,12.03,3.09,8.29,2.44,20.47,6.28,26.2,12.99,2.35,2.76,2.01,5.63,2.77,9.06,2.29,10.24,8.09,18.5,17.23,23.72.04.4-.1.19-.32.16-.93-.11-1.73-.04-2.64-.08-23.32-1.01-37.97-13.66-48.04-33.7-2.48-4.94-4.7-10.02-7.22-14.93v-.32Z"/>
                <path class="cls-1" d="M149.17,350.09c.33.02.54,2.07.57,2.47,1.21,19.04-2.75,34.21-21.01,42.5-1.68.76-13.25,5.15-14.18,4.7-.32-.16-.3-.5-.33-.8-.11-1.17.19-3.85.33-5.13.87-7.87,3.84-16.04,8.35-22.53,6.56-9.44,16.74-15.23,26.28-21.22Z"/>
                <path class="cls-1" d="M112.77,399.83c-7.01-1.6-14.04-4.09-20.13-7.93-12.01-7.56-14.99-19.37-15.38-32.93-.03-1.12.11-8.46.65-8.88,4.92,2.98,10,6.17,14.6,9.63,12.77,9.57,19.99,22.92,20.44,39.08.01.37-.07.69-.18,1.03Z"/>
              </g>
            </g>
          </g>
          <g>
            <path class="cls-1" d="M116.81,443.88c-1.63,2.64-2.75,4.88-3.37,6.21l-.24-.69-.08-.2c-.63-1.11-1.79-3.08-3.36-5.45-6.46-9.78-10.66-12.41-11.78-19.04-.28-1.64-.63-3.86.14-6.5,1.69-5.78,7.89-10.53,14.7-10.73,7.62-.22,14.39,5.29,15.97,11.43.64,2.48.29,4.53,0,6.09-1.3,7.15-6.22,9.58-11.98,18.88Z"/>
            <path class="cls-1" d="M95.1,430.51s-.02.02-.02.03c-2.85,3.72-16.16,7.76-23.23,8.77l.69-3.11c2.53-6.79,5.93-12.56,10.14-17.14l11.23-3c-.78,3.53-.7,7.39.22,12.11.15.76.46,1.35.71,1.82.09.17.21.37.26.51Z"/>
            <path class="cls-1" d="M132.25,430.97c1.09-4.84,2-9.53.94-14.95l11.23,2.97c1.49,1.45,5.15,7,6.48,9.39,1.18,2.12,3.93,8.19,4.79,11.14-9.35-1.57-16.86-4.33-23.43-8.56Z"/>
          </g>
        </g>
        <g>
          <g>
            <path class="cls-2" d="M209.27,203.07c4.95-4.45,10.84-7.91,17.19-10.12l-.02,20.37-25.85-.07c2.43-3.76,5.34-7.18,8.68-10.18Z"/>
            <path class="cls-2" d="M181.94,225.08h56.71v-46.39c-27.39,1.38-50.14,20.68-56.71,46.39ZM232.09,219l-41.07-.13,2.14-4.12c3.14-6.04,7.3-11.4,12.32-15.91,6.53-5.86,14.51-10.17,23.08-12.48l3.57-.96-.04,33.59Z"/>
            <path class="cls-2" d="M238.65,231.21v17.51h-58.05c-.24-1.72-.4-3.47-.48-5.22h20.86v-6.29h-20.86c.09-2.03.29-4.03.6-6h57.94Z"/>
            <path class="cls-2" d="M226.43,266.62l.02,20.37c-6.35-2.22-12.25-5.68-17.19-10.11-3.34-3-6.26-6.41-8.68-10.19l25.85-.07Z"/>
            <path class="cls-2" d="M181.75,254.85c6.3,26.1,29.24,45.79,56.89,47.18v-47.18h-56.89ZM228.56,293.56c-8.57-2.3-16.56-6.62-23.08-12.47-5.03-4.52-9.18-9.87-12.32-15.92l-2.14-4.12,41.07-.12.04,33.59-3.57-.97Z"/>
            <path class="cls-2" d="M257.21,266.62l25.85.07c-2.43,3.77-5.34,7.18-8.68,10.19-4.95,4.44-10.84,7.9-17.2,10.11l.03-20.37Z"/>
            <path class="cls-2" d="M244.94,254.85v47.18c27.66-1.39,50.59-21.08,56.88-47.18h-56.88ZM278.17,281.09c-6.53,5.85-14.51,10.17-23.08,12.47l-3.57.97.04-33.59,41.07.12-2.16,4.12c-3.14,6.04-7.29,11.4-12.31,15.92Z"/>
            <path class="cls-2" d="M257.21,213.32l-.03-20.37c6.36,2.22,12.25,5.68,17.2,10.12,3.34,3,6.26,6.41,8.68,10.18l-25.85.07Z"/>
            <path class="cls-2" d="M282.61,237.21h20.85c-.09-2.03-.29-4.03-.6-6h-57.92v17.51h58.04c.24-1.72.4-3.47.48-5.22h-20.85v-6.29ZM274.37,243.5h-19.19v-6.29h19.19v6.29ZM244.94,178.69v46.39h56.69c-6.57-25.71-29.31-45.02-56.69-46.39ZM251.52,185.42l3.57.96c8.57,2.31,16.55,6.62,23.08,12.48,5.03,4.51,9.17,9.86,12.31,15.91l2.16,4.12-41.07.13-.04-33.59Z"/>
          </g>
          <rect class="cls-3" x="208.15" y="237.21" width="19.19" height="6.29"/>
          <g>
            <path class="cls-3" d="M241.79,172.31c-37.52,0-68.05,30.53-68.05,68.05s30.53,68.05,68.05,68.05,68.05-30.53,68.05-68.05-30.53-68.05-68.05-68.05ZM238.65,302.03c-27.66-1.39-50.6-21.08-56.89-47.18h56.89v47.18ZM238.65,248.72h-58.05c-.24-1.72-.4-3.47-.48-5.22h20.86v-6.29h-20.86c.09-2.03.29-4.03.6-6h57.94v17.51ZM238.65,225.08h-56.71c6.57-25.71,29.32-45.02,56.71-46.39v46.39ZM244.94,178.69c27.39,1.38,50.12,20.68,56.69,46.39h-56.69v-46.39ZM244.94,302.03v-47.18h56.88c-6.3,26.1-29.23,45.79-56.88,47.18ZM302.98,248.72h-58.04v-17.51h57.92c.3,1.98.5,3.97.6,6h-20.85v6.29h20.85c-.08,1.76-.24,3.5-.48,5.22Z"/>
            <rect class="cls-3" x="255.19" y="237.21" width="19.19" height="6.29"/>
          </g>
          <g>
            <g>
              <path class="cls-2" d="M283.06,213.24l-25.85.07-.03-20.37c6.36,2.22,12.25,5.68,17.2,10.12,3.34,3,6.26,6.41,8.68,10.18Z"/>
              <path class="cls-3" d="M290.48,214.76c-3.14-6.04-7.29-11.4-12.31-15.91-6.53-5.86-14.51-10.17-23.08-12.48l-3.57-.96.04,33.59,41.07-.13-2.16-4.12ZM257.21,213.32l-.03-20.37c6.36,2.22,12.25,5.68,17.2,10.12,3.34,3,6.26,6.41,8.68,10.18l-25.85.07Z"/>
            </g>
            <g>
              <path class="cls-2" d="M226.45,192.94l-.02,20.37-25.85-.07c2.43-3.76,5.34-7.18,8.68-10.18,4.95-4.45,10.84-7.91,17.19-10.12Z"/>
              <path class="cls-3" d="M228.56,186.37c-8.57,2.31-16.55,6.62-23.08,12.48-5.03,4.51-9.18,9.86-12.32,15.91l-2.14,4.12,41.07.13.04-33.59-3.57.96ZM226.43,213.32l-25.85-.07c2.43-3.76,5.34-7.18,8.68-10.18,4.95-4.45,10.84-7.91,17.19-10.12l-.02,20.37Z"/>
            </g>
          </g>
          <g>
            <g>
              <path class="cls-2" d="M283.06,266.69c-2.43,3.77-5.34,7.18-8.68,10.19-4.95,4.44-10.84,7.9-17.2,10.11l.03-20.37,25.85.07Z"/>
              <path class="cls-3" d="M251.56,260.94l-.04,33.59,3.57-.97c8.57-2.3,16.55-6.62,23.08-12.47,5.03-4.52,9.17-9.87,12.31-15.92l2.16-4.12-41.07-.12ZM257.18,286.99l.03-20.37,25.85.07c-2.43,3.77-5.34,7.18-8.68,10.19-4.95,4.44-10.84,7.9-17.2,10.11Z"/>
            </g>
            <g>
              <path class="cls-2" d="M226.45,286.99c-6.35-2.22-12.25-5.68-17.19-10.11-3.34-3-6.26-6.41-8.68-10.19l25.85-.07.02,20.37Z"/>
              <path class="cls-3" d="M232.09,260.94l-41.07.12,2.14,4.12c3.14,6.04,7.3,11.4,12.32,15.92,6.52,5.85,14.51,10.17,23.08,12.47l3.57.97-.04-33.59ZM226.43,266.62l.02,20.37c-6.35-2.22-12.25-5.68-17.19-10.11-3.34-3-6.26-6.41-8.68-10.19l25.85-.07Z"/>
            </g>
          </g>
        </g>
      </g>
      <g>
        <path class="cls-3" d="M79.6,558.57c-.86-1.04-1.91-1.84-3.15-2.4-1.25-.56-2.69-.84-4.32-.84s-3.15.32-4.55.95c-1.39.63-2.6,1.52-3.63,2.65-1.02,1.14-1.82,2.48-2.4,4.05s-.87,3.26-.87,5.08.29,3.56.87,5.11c.58,1.55,1.37,2.88,2.37,4.02,1,1.14,2.18,2.02,3.54,2.65,1.36.63,2.82.95,4.38.95,1.79,0,3.37-.37,4.74-1.12,1.38-.74,2.51-1.79,3.4-3.13l7.26,5.41c-1.67,2.34-3.79,4.07-6.36,5.19-2.57,1.12-5.21,1.67-7.93,1.67-3.09,0-5.93-.48-8.54-1.45-2.61-.97-4.86-2.35-6.75-4.16-1.9-1.8-3.38-3.99-4.44-6.56-1.06-2.57-1.59-5.43-1.59-8.59s.53-6.03,1.59-8.59c1.06-2.57,2.54-4.75,4.44-6.56,1.9-1.8,4.15-3.19,6.75-4.16,2.6-.97,5.45-1.45,8.54-1.45,1.12,0,2.28.1,3.49.31s2.4.53,3.57.98,2.3,1.04,3.38,1.79c1.08.74,2.05,1.66,2.9,2.73l-6.7,5.47Z"/>
        <path class="cls-3" d="M92.88,548.3h26.85v8.04h-18.14v7.37h17.13v8.04h-17.13v8.04h19.14v8.04h-27.85v-39.52Z"/>
        <path class="cls-3" d="M128.27,548.3h15.29c2.01,0,3.92.2,5.72.59s3.39,1.04,4.75,1.95c1.36.91,2.44,2.14,3.24,3.68.8,1.54,1.2,3.47,1.2,5.78,0,2.79-.73,5.16-2.18,7.12-1.45,1.95-3.57,3.19-6.36,3.71l10.05,16.69h-10.44l-8.26-15.79h-4.3v15.79h-8.71v-39.52ZM136.97,564.66h5.14c.78,0,1.61-.03,2.48-.08.87-.06,1.67-.22,2.37-.5s1.29-.72,1.76-1.31c.46-.59.7-1.43.7-2.51,0-1-.2-1.8-.61-2.4-.41-.59-.93-1.05-1.56-1.37s-1.36-.53-2.18-.64c-.82-.11-1.62-.17-2.4-.17h-5.69v8.99Z"/>
        <path class="cls-3" d="M171.63,556h-11.27v-7.7h31.25v7.7h-11.27v31.81h-8.71v-31.81Z"/>
        <path class="cls-3" d="M196.47,548.3h8.71v39.52h-8.71v-39.52Z"/>
        <path class="cls-3" d="M213.99,548.3h26.51v8.04h-17.8v8.04h16.47v8.04h-16.47v15.4h-8.71v-39.52Z"/>
        <path class="cls-3" d="M247.2,548.3h8.71v39.52h-8.71v-39.52Z"/>
        <path class="cls-3" d="M264.72,548.3h26.85v8.04h-18.14v7.37h17.13v8.04h-17.13v8.04h19.14v8.04h-27.85v-39.52Z"/>
        <path class="cls-3" d="M300.11,548.3h13.06c3.16,0,6.17.35,9.01,1.06,2.85.71,5.33,1.85,7.45,3.43,2.12,1.58,3.8,3.64,5.05,6.17,1.25,2.53,1.87,5.6,1.87,9.21,0,3.2-.61,6.02-1.82,8.46-1.21,2.44-2.84,4.48-4.88,6.14-2.05,1.66-4.41,2.91-7.09,3.77s-5.49,1.28-8.43,1.28h-14.23v-39.52ZM308.81,579.78h4.52c2.01,0,3.88-.2,5.61-.61,1.73-.41,3.23-1.09,4.49-2.04s2.26-2.19,2.99-3.74c.73-1.54,1.09-3.43,1.09-5.66,0-1.93-.36-3.62-1.09-5.05-.72-1.43-1.7-2.61-2.93-3.54s-2.67-1.63-4.32-2.09c-1.66-.47-3.4-.7-5.22-.7h-5.14v23.44Z"/>
        <path class="cls-3" d="M360.11,548.3h14.68c2.05,0,3.98.19,5.8.56,1.82.37,3.41,1.01,4.77,1.92,1.36.91,2.44,2.14,3.24,3.68.8,1.55,1.2,3.49,1.2,5.83s-.37,4.24-1.12,5.8c-.75,1.56-1.77,2.81-3.07,3.74s-2.85,1.59-4.63,1.98c-1.79.39-3.72.59-5.8.59h-6.36v15.4h-8.71v-39.52ZM368.81,565.05h5.8c.78,0,1.54-.07,2.26-.22.72-.15,1.38-.4,1.95-.75.58-.35,1.04-.84,1.4-1.45s.53-1.39.53-2.32c0-1-.23-1.81-.7-2.43-.46-.61-1.06-1.09-1.78-1.42-.73-.33-1.54-.55-2.43-.64-.89-.09-1.75-.14-2.57-.14h-4.47v9.38Z"/>
        <path class="cls-3" d="M429.14,572.58c0,2.34-.35,4.5-1.06,6.47-.71,1.97-1.76,3.68-3.15,5.13-1.4,1.45-3.14,2.59-5.22,3.41-2.08.82-4.48,1.23-7.2,1.23s-5.17-.41-7.26-1.23c-2.08-.82-3.82-1.95-5.22-3.41-1.4-1.45-2.45-3.16-3.15-5.13-.71-1.97-1.06-4.13-1.06-6.47v-24.28h8.71v23.94c0,1.23.2,2.36.59,3.41s.94,1.94,1.65,2.71c.71.76,1.55,1.36,2.54,1.79.99.43,2.06.64,3.21.64s2.21-.21,3.18-.64c.97-.43,1.8-1.02,2.51-1.79.71-.76,1.26-1.66,1.65-2.71.39-1.04.59-2.18.59-3.41v-23.94h8.71v24.28Z"/>
        <path class="cls-3" d="M437.74,548.3h14.73c1.71,0,3.43.12,5.16.36,1.73.24,3.28.72,4.66,1.45,1.38.73,2.49,1.74,3.35,3.04.86,1.3,1.28,3.03,1.28,5.19s-.62,4.08-1.87,5.55c-1.25,1.47-2.89,2.52-4.94,3.15v.11c1.3.19,2.48.55,3.54,1.09,1.06.54,1.97,1.23,2.73,2.07.76.84,1.35,1.81,1.76,2.93.41,1.12.61,2.31.61,3.57,0,2.08-.45,3.82-1.34,5.22s-2.05,2.52-3.46,3.38c-1.41.86-3,1.47-4.77,1.84-1.77.37-3.53.56-5.27.56h-16.19v-39.52ZM446.44,564.1h6.31c.67,0,1.33-.07,1.98-.22s1.24-.39,1.76-.73.94-.78,1.26-1.34c.31-.56.47-1.23.47-2.01s-.18-1.5-.53-2.04c-.35-.54-.81-.96-1.37-1.26-.56-.3-1.19-.51-1.9-.64s-1.39-.2-2.06-.2h-5.92v8.43ZM446.44,580.45h7.81c.67,0,1.35-.07,2.04-.22.69-.15,1.31-.41,1.87-.78.56-.37,1.01-.86,1.37-1.45.35-.59.53-1.32.53-2.18,0-.93-.23-1.68-.7-2.26-.47-.58-1.05-1.01-1.76-1.31-.71-.3-1.47-.5-2.29-.61-.82-.11-1.58-.17-2.29-.17h-6.59v8.99Z"/>
        <path class="cls-3" d="M474.8,548.3h8.71v31.48h16.13v8.04h-24.84v-39.52Z"/>
        <path class="cls-3" d="M504.88,548.3h8.71v39.52h-8.71v-39.52Z"/>
        <path class="cls-3" d="M547.91,558.57c-.86-1.04-1.91-1.84-3.15-2.4-1.25-.56-2.69-.84-4.33-.84s-3.15.32-4.55.95c-1.4.63-2.61,1.52-3.63,2.65-1.02,1.14-1.82,2.48-2.4,4.05s-.86,3.26-.86,5.08.29,3.56.86,5.11c.58,1.55,1.37,2.88,2.37,4.02,1.01,1.14,2.19,2.02,3.55,2.65,1.36.63,2.82.95,4.38.95,1.79,0,3.37-.37,4.75-1.12,1.38-.74,2.51-1.79,3.4-3.13l7.26,5.41c-1.68,2.34-3.8,4.07-6.36,5.19-2.57,1.12-5.21,1.67-7.93,1.67-3.09,0-5.94-.48-8.54-1.45-2.61-.97-4.86-2.35-6.75-4.16s-3.38-3.99-4.44-6.56c-1.06-2.57-1.59-5.43-1.59-8.59s.53-6.03,1.59-8.59c1.06-2.57,2.54-4.75,4.44-6.56,1.9-1.8,4.15-3.19,6.75-4.16,2.6-.97,5.45-1.45,8.54-1.45,1.12,0,2.28.1,3.49.31s2.4.53,3.57.98c1.17.45,2.3,1.04,3.38,1.79,1.08.74,2.05,1.66,2.9,2.73l-6.7,5.47Z"/>
        <path class="cls-3" d="M590.94,548.3h7.2l17.19,39.52h-9.82l-3.4-8.37h-15.35l-3.29,8.37h-9.6l17.08-39.52ZM594.29,559.8l-4.8,12.28h9.66l-4.86-12.28Z"/>
        <path class="cls-3" d="M645.69,558.57c-.86-1.04-1.91-1.84-3.15-2.4-1.25-.56-2.69-.84-4.32-.84s-3.15.32-4.55.95c-1.39.63-2.6,1.52-3.63,2.65-1.02,1.14-1.82,2.48-2.4,4.05s-.87,3.26-.87,5.08.29,3.56.87,5.11c.58,1.55,1.37,2.88,2.37,4.02,1,1.14,2.18,2.02,3.54,2.65,1.36.63,2.82.95,4.38.95,1.79,0,3.37-.37,4.74-1.12,1.38-.74,2.51-1.79,3.4-3.13l7.26,5.41c-1.67,2.34-3.79,4.07-6.36,5.19-2.57,1.12-5.21,1.67-7.93,1.67-3.09,0-5.93-.48-8.54-1.45-2.61-.97-4.86-2.35-6.75-4.16-1.9-1.8-3.38-3.99-4.44-6.56-1.06-2.57-1.59-5.43-1.59-8.59s.53-6.03,1.59-8.59c1.06-2.57,2.54-4.75,4.44-6.56,1.9-1.8,4.15-3.19,6.75-4.16,2.6-.97,5.45-1.45,8.54-1.45,1.12,0,2.28.1,3.49.31s2.4.53,3.57.98,2.3,1.04,3.38,1.79c1.08.74,2.05,1.66,2.9,2.73l-6.7,5.47Z"/>
        <path class="cls-3" d="M684.48,558.57c-.86-1.04-1.91-1.84-3.15-2.4-1.25-.56-2.69-.84-4.33-.84s-3.15.32-4.55.95c-1.4.63-2.61,1.52-3.63,2.65-1.02,1.14-1.82,2.48-2.4,4.05-.58,1.56-.86,3.26-.86,5.08s.29,3.56.86,5.11c.58,1.55,1.37,2.88,2.37,4.02,1.01,1.14,2.19,2.02,3.55,2.65,1.36.63,2.82.95,4.38.95,1.79,0,3.37-.37,4.75-1.12,1.38-.74,2.51-1.79,3.4-3.13l7.26,5.41c-1.68,2.34-3.8,4.07-6.36,5.19-2.57,1.12-5.21,1.67-7.93,1.67-3.09,0-5.94-.48-8.54-1.45-2.61-.97-4.86-2.35-6.75-4.16-1.9-1.8-3.38-3.99-4.44-6.56-1.06-2.57-1.59-5.43-1.59-8.59s.53-6.03,1.59-8.59c1.06-2.57,2.54-4.75,4.44-6.56,1.9-1.8,4.15-3.19,6.75-4.16,2.6-.97,5.45-1.45,8.54-1.45,1.12,0,2.28.1,3.49.31s2.4.53,3.57.98c1.17.45,2.3,1.04,3.38,1.79,1.08.74,2.05,1.66,2.9,2.73l-6.7,5.47Z"/>
        <path class="cls-3" d="M695.31,568.06c0-3.16.53-6.03,1.59-8.59,1.06-2.57,2.54-4.75,4.44-6.56,1.9-1.8,4.15-3.19,6.75-4.16,2.6-.97,5.45-1.45,8.54-1.45s5.94.48,8.54,1.45c2.61.97,4.86,2.35,6.75,4.16,1.9,1.81,3.38,3.99,4.44,6.56,1.06,2.57,1.59,5.43,1.59,8.59s-.53,6.03-1.59,8.59c-1.06,2.57-2.54,4.75-4.44,6.56-1.9,1.8-4.15,3.19-6.75,4.16-2.6.97-5.45,1.45-8.54,1.45s-5.93-.48-8.54-1.45c-2.61-.97-4.86-2.35-6.75-4.16-1.9-1.8-3.38-3.99-4.44-6.56-1.06-2.57-1.59-5.43-1.59-8.59ZM704.35,568.06c0,1.86.29,3.56.87,5.11.58,1.55,1.4,2.88,2.48,4.02,1.08,1.14,2.37,2.02,3.88,2.65,1.51.63,3.19.95,5.05.95s3.55-.32,5.05-.95c1.51-.63,2.8-1.52,3.88-2.65,1.08-1.13,1.91-2.47,2.48-4.02.58-1.54.87-3.25.87-5.11s-.29-3.52-.87-5.08-1.4-2.91-2.48-4.05c-1.08-1.14-2.37-2.02-3.88-2.65-1.51-.63-3.19-.95-5.05-.95s-3.54.32-5.05.95c-1.51.63-2.8,1.52-3.88,2.65-1.08,1.14-1.91,2.48-2.48,4.05s-.87,3.26-.87,5.08Z"/>
        <path class="cls-3" d="M777.74,572.58c0,2.34-.36,4.5-1.06,6.47-.71,1.97-1.76,3.68-3.15,5.13-1.39,1.45-3.14,2.59-5.22,3.41-2.08.82-4.48,1.23-7.2,1.23s-5.17-.41-7.25-1.23c-2.08-.82-3.82-1.95-5.22-3.41-1.39-1.45-2.45-3.16-3.15-5.13-.71-1.97-1.06-4.13-1.06-6.47v-24.28h8.71v23.94c0,1.23.2,2.36.59,3.41.39,1.04.94,1.94,1.65,2.71.71.76,1.55,1.36,2.54,1.79.99.43,2.06.64,3.21.64s2.21-.21,3.18-.64c.97-.43,1.8-1.02,2.51-1.79.71-.76,1.25-1.66,1.65-2.71.39-1.04.59-2.18.59-3.41v-23.94h8.71v24.28Z"/>
        <path class="cls-3" d="M786.34,548.3h11.83l16.8,27.46h.11v-27.46h8.71v39.52h-11.39l-17.25-28.13h-.11v28.13h-8.71v-39.52Z"/>
        <path class="cls-3" d="M840.03,556h-11.27v-7.7h31.25v7.7h-11.27v31.81h-8.71v-31.81Z"/>
        <path class="cls-3" d="M872.84,548.3h7.2l17.19,39.52h-9.82l-3.4-8.37h-15.35l-3.29,8.37h-9.6l17.08-39.52ZM876.19,559.8l-4.8,12.28h9.65l-4.86-12.28Z"/>
        <path class="cls-3" d="M901.75,548.3h11.83l16.8,27.46h.11v-27.46h8.71v39.52h-11.39l-17.25-28.13h-.11v28.13h-8.71v-39.52Z"/>
        <path class="cls-3" d="M955.44,556h-11.27v-7.7h31.25v7.7h-11.27v31.81h-8.71v-31.81Z"/>
        <path class="cls-3" d="M999.93,557.96c-.71-.89-1.67-1.55-2.87-1.98-1.21-.43-2.35-.64-3.43-.64-.63,0-1.29.07-1.95.22s-1.3.38-1.9.7c-.6.32-1.08.74-1.45,1.26-.37.52-.56,1.15-.56,1.9,0,1.19.45,2.1,1.34,2.73.89.63,2.02,1.17,3.38,1.62,1.36.45,2.82.89,4.38,1.34s3.02,1.08,4.38,1.9c1.36.82,2.48,1.92,3.38,3.29.89,1.38,1.34,3.22,1.34,5.53s-.41,4.11-1.23,5.75c-.82,1.64-1.93,3-3.32,4.07-1.39,1.08-3.01,1.88-4.85,2.4-1.84.52-3.79.78-5.83.78-2.57,0-4.95-.39-7.14-1.17-2.2-.78-4.24-2.05-6.14-3.8l6.19-6.81c.89,1.19,2.02,2.11,3.38,2.76,1.36.65,2.76.98,4.22.98.71,0,1.42-.08,2.15-.25.73-.17,1.38-.42,1.95-.75.57-.34,1.04-.76,1.39-1.28.35-.52.53-1.13.53-1.84,0-1.19-.46-2.13-1.37-2.82-.91-.69-2.06-1.27-3.43-1.76-1.38-.48-2.87-.97-4.47-1.45s-3.09-1.13-4.46-1.95c-1.38-.82-2.52-1.9-3.43-3.24s-1.37-3.11-1.37-5.3.42-3.98,1.25-5.58c.84-1.6,1.95-2.94,3.35-4.02,1.4-1.08,3.01-1.89,4.83-2.43,1.82-.54,3.7-.81,5.64-.81,2.23,0,4.39.32,6.47.95,2.08.63,3.96,1.69,5.64,3.18l-5.97,6.53Z"/>
        <path class="cls-3" d="M245.58,611.38h8.71v39.52h-8.71v-39.52Z"/>
        <path class="cls-3" d="M262.77,611.38h11.83l16.8,27.46h.11v-27.46h8.71v39.52h-11.39l-17.25-28.13h-.11v28.13h-8.71v-39.52Z"/>
        <path class="cls-3" d="M325.89,611.38h14.68c2.05,0,3.98.19,5.8.56,1.82.37,3.41,1.01,4.77,1.92,1.36.91,2.44,2.14,3.24,3.68.8,1.55,1.2,3.49,1.2,5.83s-.37,4.24-1.11,5.8c-.75,1.56-1.77,2.81-3.07,3.74-1.3.93-2.85,1.59-4.63,1.98-1.78.39-3.72.59-5.8.59h-6.36v15.4h-8.71v-39.52ZM334.6,628.12h5.8c.78,0,1.53-.07,2.26-.22.72-.15,1.38-.4,1.95-.75.58-.35,1.04-.84,1.39-1.45.36-.61.53-1.39.53-2.32,0-1-.23-1.81-.7-2.43-.47-.61-1.06-1.09-1.79-1.42-.72-.33-1.53-.55-2.43-.64-.89-.09-1.75-.14-2.57-.14h-4.46v9.38Z"/>
        <path class="cls-3" d="M394.93,635.66c0,2.34-.35,4.5-1.06,6.47-.71,1.97-1.76,3.68-3.15,5.13-1.4,1.45-3.14,2.59-5.22,3.41-2.08.82-4.48,1.23-7.2,1.23s-5.17-.41-7.26-1.23c-2.08-.82-3.82-1.95-5.22-3.41-1.4-1.45-2.45-3.16-3.15-5.13-.71-1.97-1.06-4.13-1.06-6.47v-24.28h8.71v23.94c0,1.23.2,2.36.59,3.41s.94,1.94,1.65,2.71c.71.76,1.55,1.36,2.54,1.79.99.43,2.06.64,3.21.64s2.21-.21,3.18-.64c.97-.43,1.8-1.02,2.51-1.79.71-.76,1.26-1.66,1.65-2.71.39-1.04.59-2.18.59-3.41v-23.94h8.71v24.28Z"/>
        <path class="cls-3" d="M403.53,611.38h14.73c1.71,0,3.43.12,5.16.36,1.73.24,3.28.72,4.66,1.45,1.38.73,2.49,1.74,3.35,3.04.86,1.3,1.28,3.03,1.28,5.19s-.62,4.08-1.87,5.55c-1.25,1.47-2.89,2.52-4.94,3.15v.11c1.3.19,2.48.55,3.54,1.09,1.06.54,1.97,1.23,2.73,2.07.76.84,1.35,1.81,1.76,2.93.41,1.12.61,2.31.61,3.57,0,2.08-.45,3.82-1.34,5.22s-2.05,2.52-3.46,3.38c-1.41.86-3,1.47-4.77,1.84-1.77.37-3.53.56-5.27.56h-16.19v-39.52ZM412.23,627.17h6.31c.67,0,1.33-.07,1.98-.22s1.24-.39,1.76-.73.94-.78,1.26-1.34c.31-.56.47-1.23.47-2.01s-.18-1.5-.53-2.04c-.35-.54-.81-.96-1.37-1.26-.56-.3-1.19-.51-1.9-.64s-1.39-.2-2.06-.2h-5.92v8.43ZM412.23,643.53h7.81c.67,0,1.35-.07,2.04-.22.69-.15,1.31-.41,1.87-.78.56-.37,1.01-.86,1.37-1.45.35-.59.53-1.32.53-2.18,0-.93-.23-1.68-.7-2.26-.47-.58-1.05-1.01-1.76-1.31-.71-.3-1.47-.5-2.29-.61-.82-.11-1.58-.17-2.29-.17h-6.59v8.99Z"/>
        <path class="cls-3" d="M440.59,611.38h8.71v31.48h16.13v8.04h-24.84v-39.52Z"/>
        <path class="cls-3" d="M470.67,611.38h8.71v39.52h-8.71v-39.52Z"/>
        <path class="cls-3" d="M513.7,621.65c-.86-1.04-1.91-1.84-3.15-2.4-1.25-.56-2.69-.84-4.33-.84s-3.15.32-4.55.95c-1.4.63-2.61,1.52-3.63,2.65-1.02,1.14-1.82,2.48-2.4,4.05s-.86,3.26-.86,5.08.29,3.56.86,5.11c.58,1.55,1.37,2.88,2.37,4.02,1.01,1.14,2.19,2.02,3.55,2.65,1.36.63,2.82.95,4.38.95,1.79,0,3.37-.37,4.75-1.12,1.38-.74,2.51-1.79,3.4-3.13l7.26,5.41c-1.68,2.34-3.8,4.07-6.36,5.19-2.57,1.12-5.21,1.67-7.93,1.67-3.09,0-5.94-.48-8.54-1.45-2.61-.97-4.86-2.35-6.75-4.16s-3.38-3.99-4.44-6.56c-1.06-2.57-1.59-5.43-1.59-8.59s.53-6.03,1.59-8.59c1.06-2.57,2.54-4.75,4.44-6.56,1.9-1.8,4.15-3.19,6.75-4.16,2.6-.97,5.45-1.45,8.54-1.45,1.12,0,2.28.1,3.49.31s2.4.53,3.57.98c1.17.45,2.3,1.04,3.38,1.79,1.08.74,2.05,1.66,2.9,2.73l-6.7,5.47Z"/>
        <path class="cls-3" d="M543.72,611.38h14.68c2.05,0,3.98.19,5.8.56,1.82.37,3.41,1.01,4.77,1.92,1.36.91,2.44,2.14,3.24,3.68.8,1.55,1.2,3.49,1.2,5.83s-.37,4.24-1.11,5.8c-.75,1.56-1.77,2.81-3.07,3.74-1.3.93-2.85,1.59-4.63,1.98-1.78.39-3.72.59-5.8.59h-6.36v15.4h-8.71v-39.52ZM552.43,628.12h5.8c.78,0,1.53-.07,2.26-.22.72-.15,1.38-.4,1.95-.75.58-.35,1.04-.84,1.39-1.45.36-.61.53-1.39.53-2.32,0-1-.23-1.81-.7-2.43-.47-.61-1.06-1.09-1.79-1.42-.72-.33-1.53-.55-2.43-.64-.89-.09-1.75-.14-2.57-.14h-4.46v9.38Z"/>
        <path class="cls-3" d="M579.44,611.38h15.29c2.01,0,3.92.2,5.72.59s3.39,1.04,4.75,1.95c1.36.91,2.44,2.14,3.24,3.68.8,1.54,1.2,3.47,1.2,5.78,0,2.79-.73,5.16-2.18,7.12-1.45,1.95-3.57,3.19-6.36,3.71l10.05,16.69h-10.44l-8.26-15.79h-4.3v15.79h-8.71v-39.52ZM588.15,627.73h5.14c.78,0,1.61-.03,2.48-.08.87-.06,1.67-.22,2.37-.5s1.29-.72,1.76-1.31c.46-.59.7-1.43.7-2.51,0-1-.2-1.8-.61-2.4-.41-.59-.93-1.05-1.56-1.37s-1.36-.53-2.18-.64c-.82-.11-1.62-.17-2.4-.17h-5.69v8.99Z"/>
        <path class="cls-3" d="M629.17,611.38h7.2l17.19,39.52h-9.82l-3.4-8.37h-15.35l-3.29,8.37h-9.6l17.08-39.52ZM632.52,622.88l-4.8,12.28h9.66l-4.86-12.28Z"/>
        <path class="cls-3" d="M683.92,621.65c-.86-1.04-1.91-1.84-3.15-2.4-1.25-.56-2.69-.84-4.32-.84s-3.15.32-4.55.95c-1.39.63-2.6,1.52-3.63,2.65-1.02,1.14-1.82,2.48-2.4,4.05s-.87,3.26-.87,5.08.29,3.56.87,5.11c.58,1.55,1.37,2.88,2.37,4.02,1,1.14,2.18,2.02,3.54,2.65,1.36.63,2.82.95,4.38.95,1.79,0,3.37-.37,4.74-1.12,1.38-.74,2.51-1.79,3.4-3.13l7.26,5.41c-1.67,2.34-3.79,4.07-6.36,5.19-2.57,1.12-5.21,1.67-7.93,1.67-3.09,0-5.93-.48-8.54-1.45-2.61-.97-4.86-2.35-6.75-4.16-1.9-1.8-3.38-3.99-4.44-6.56-1.06-2.57-1.59-5.43-1.59-8.59s.53-6.03,1.59-8.59c1.06-2.57,2.54-4.75,4.44-6.56,1.9-1.8,4.15-3.19,6.75-4.16,2.6-.97,5.45-1.45,8.54-1.45,1.12,0,2.28.1,3.49.31s2.4.53,3.57.98,2.3,1.04,3.38,1.79c1.08.74,2.05,1.66,2.9,2.73l-6.7,5.47Z"/>
        <path class="cls-3" d="M704.52,619.08h-11.27v-7.7h31.25v7.7h-11.27v31.81h-8.71v-31.81Z"/>
        <path class="cls-3" d="M729.35,611.38h8.71v39.52h-8.71v-39.52Z"/>
        <path class="cls-3" d="M772.38,621.65c-.86-1.04-1.91-1.84-3.15-2.4-1.25-.56-2.69-.84-4.32-.84s-3.15.32-4.55.95c-1.39.63-2.6,1.52-3.63,2.65-1.02,1.14-1.82,2.48-2.4,4.05s-.87,3.26-.87,5.08.29,3.56.87,5.11c.58,1.55,1.37,2.88,2.37,4.02,1,1.14,2.18,2.02,3.54,2.65,1.36.63,2.82.95,4.38.95,1.79,0,3.37-.37,4.74-1.12,1.38-.74,2.51-1.79,3.4-3.13l7.26,5.41c-1.67,2.34-3.79,4.07-6.36,5.19-2.57,1.12-5.21,1.67-7.93,1.67-3.09,0-5.93-.48-8.54-1.45-2.61-.97-4.86-2.35-6.75-4.16-1.9-1.8-3.38-3.99-4.44-6.56-1.06-2.57-1.59-5.43-1.59-8.59s.53-6.03,1.59-8.59c1.06-2.57,2.54-4.75,4.44-6.56,1.9-1.8,4.15-3.19,6.75-4.16,2.6-.97,5.45-1.45,8.54-1.45,1.12,0,2.28.1,3.49.31s2.4.53,3.57.98,2.3,1.04,3.38,1.79c1.08.74,2.05,1.66,2.9,2.73l-6.7,5.47Z"/>
        <path class="cls-3" d="M785.67,611.38h26.85v8.04h-18.14v7.37h17.13v8.04h-17.13v8.04h19.14v8.04h-27.85v-39.52Z"/>
      </g>
    </g>
  </g>
</svg>